<svg width="36" height="42" viewBox="0 0 36 42" fill="none" xmlns="http://www.w3.org/2000/svg">
<path d="M1.28571 10.5736H34.7143C35.4244 10.5736 36 9.99981 36 9.29194V6.08783C36 5.37996 35.4244 4.80618 34.7143 4.80618H1.28571C0.575598 4.80618 0 5.37996 0 6.08783V9.29194C0 9.99981 0.575598 10.5736 1.28571 10.5736ZM1.28571 23.39H34.7143C35.4244 23.39 36 22.8163 36 22.1084V18.9043C36 18.1964 35.4244 17.6226 34.7143 17.6226H1.28571C0.575598 17.6226 0 18.1964 0 18.9043V22.1084C0 22.8163 0.575598 23.39 1.28571 23.39ZM1.28571 36.2065H34.7143C35.4244 36.2065 36 35.6327 36 34.9249V31.7207C36 31.0129 35.4244 30.4391 34.7143 30.4391H1.28571C0.575598 30.4391 0 31.0129 0 31.7207V34.9249C0 35.6327 0.575598 36.2065 1.28571 36.2065Z" fill="#4A4A4A"/>
</svg>
