<svg width="29" height="32" viewBox="0 0 29 32" fill="none" xmlns="http://www.w3.org/2000/svg">
<g clip-path="url(#clip0)">
<path d="M14.0551 8.81245C10.0662 8.81245 6.84878 12.0187 6.84878 15.9937C6.84878 19.9687 10.0662 23.175 14.0551 23.175C18.0439 23.175 21.2613 19.9687 21.2613 15.9937C21.2613 12.0187 18.0439 8.81245 14.0551 8.81245ZM14.0551 20.6625C11.4774 20.6625 9.37003 18.5687 9.37003 15.9937C9.37003 13.4187 11.4711 11.325 14.0551 11.325C16.639 11.325 18.7401 13.4187 18.7401 15.9937C18.7401 18.5687 16.6328 20.6625 14.0551 20.6625ZM23.2369 8.5187C23.2369 9.44995 22.4843 10.1937 21.5561 10.1937C20.6216 10.1937 19.8753 9.4437 19.8753 8.5187C19.8753 7.5937 20.6279 6.8437 21.5561 6.8437C22.4843 6.8437 23.2369 7.5937 23.2369 8.5187ZM28.0098 10.2187C27.9031 7.97495 27.3888 5.98745 25.7394 4.34995C24.0962 2.71245 22.1017 2.19995 19.8502 2.08745C17.5296 1.9562 10.5742 1.9562 8.25366 2.08745C6.00836 2.1937 4.01394 2.7062 2.36446 4.3437C0.714983 5.9812 0.206969 7.9687 0.094077 10.2125C-0.0376303 12.525 -0.0376303 19.4562 0.094077 21.7687C0.200697 24.0125 0.714983 26 2.36446 27.6375C4.01394 29.275 6.00209 29.7875 8.25366 29.9C10.5742 30.0312 17.5296 30.0312 19.8502 29.9C22.1017 29.7937 24.0962 29.2812 25.7394 27.6375C27.3826 26 27.8969 24.0125 28.0098 21.7687C28.1415 19.4562 28.1415 12.5312 28.0098 10.2187ZM25.0118 24.25C24.5226 25.475 23.5756 26.4187 22.3401 26.9125C20.4899 27.6437 16.0997 27.475 14.0551 27.475C12.0105 27.475 7.61394 27.6375 5.77003 26.9125C4.54077 26.425 3.59373 25.4812 3.09826 24.25C2.36446 22.4062 2.5338 18.0312 2.5338 15.9937C2.5338 13.9562 2.37073 9.57495 3.09826 7.73745C3.58746 6.51245 4.53449 5.5687 5.77003 5.07495C7.62021 4.3437 12.0105 4.51245 14.0551 4.51245C16.0997 4.51245 20.4962 4.34995 22.3401 5.07495C23.5693 5.56245 24.5164 6.5062 25.0118 7.73745C25.7456 9.5812 25.5763 13.9562 25.5763 15.9937C25.5763 18.0312 25.7456 22.4125 25.0118 24.25Z" fill="#4A4A4A"/>
</g>
<defs>
<clipPath id="clip0">
<rect width="28.0976" height="32" fill="white"/>
</clipPath>
</defs>
</svg>
