<svg width="32" height="32" viewBox="0 0 32 32" fill="none" xmlns="http://www.w3.org/2000/svg">
<g clip-path="url(#clip0)">
<path d="M31.5644 27.6658L25.3329 21.4363C25.0512 21.1541 24.6702 20.9989 24.2701 20.9989H23.2512C24.9762 18.7924 26.0012 16.0182 26.0012 13.0002C26.0012 5.81916 20.1818 0.000976562 12.9998 0.000976562C5.8184 0.000976562 -0.00100708 5.81972 -0.00100708 13.0002C-0.00100708 20.1801 5.8184 25.9983 12.9998 25.9983C16.019 25.9983 18.7944 24.9734 21.0008 23.2483V24.2669C21.0008 24.667 21.1566 25.0485 21.4382 25.3295L27.6697 31.5602C28.2573 32.1477 29.2078 32.1477 29.7886 31.5602L31.5576 29.7911C32.1457 29.203 32.1457 28.2533 31.5644 27.6658ZM13.0004 20.9983C8.58135 20.9983 4.99996 17.4239 4.99996 12.9996C4.99996 8.58096 8.57514 4.99976 13.0004 4.99976C17.42 4.99976 21.0014 8.57418 21.0014 12.9996C21.0014 17.4171 17.4262 20.9983 13.0004 20.9983Z" fill="#4A4A4A"/>
</g>
<defs>
<clipPath id="clip0">
<rect width="32" height="32" fill="white"/>
</clipPath>
</defs>
</svg>
