<svg width="32" height="29" viewBox="0 0 32 29" fill="none" xmlns="http://www.w3.org/2000/svg">
<path d="M30.5364 6.95688C30.1875 5.63092 29.1593 4.58663 27.854 4.23223C25.4878 3.58826 16 3.58826 16 3.58826C16 3.58826 6.51223 3.58826 4.14606 4.23223C2.84068 4.58668 1.81256 5.63092 1.46362 6.95688C0.82962 9.36027 0.82962 14.3747 0.82962 14.3747C0.82962 14.3747 0.82962 19.3892 1.46362 21.7925C1.81256 23.1185 2.84068 24.1193 4.14606 24.4737C6.51223 25.1177 16 25.1177 16 25.1177C16 25.1177 25.4878 25.1177 27.854 24.4737C29.1593 24.1193 30.1875 23.1185 30.5364 21.7925C31.1704 19.3892 31.1704 14.3747 31.1704 14.3747C31.1704 14.3747 31.1704 9.36027 30.5364 6.95688ZM12.897 18.9275V9.82197L20.8269 14.3748L12.897 18.9275Z" fill="#4A4A4A"/>
</svg>
